<svg xmlns="http://www.w3.org/2000/svg" viewBox="0 0 600 400" role="img" aria-label="추출">
  <defs>
    <linearGradient id="bg" x1="0" y1="0" x2="1" y2="1">
      <stop offset="0%" stop-color="#FAF7F2"/>
      <stop offset="100%" stop-color="#F2ECE3"/>
    </linearGradient>
    <linearGradient id="brew" x1="0" y1="0" x2="0" y2="1">
      <stop offset="0%" stop-color="#A0845C"/>
      <stop offset="100%" stop-color="#3C2C1F"/>
    </linearGradient>
  </defs>
  <rect width="600" height="400" fill="url(#bg)"/>
  <path d="M250 80 L 350 80 L 320 220 L 280 220 Z" fill="none" stroke="#6F4E37" stroke-width="3" stroke-linejoin="round"/>
  <line x1="260" y1="105" x2="340" y2="105" stroke="#6F4E37" stroke-width="2"/>
  <path d="M250 80 Q 270 60, 300 60 Q 330 60, 350 80" fill="none" stroke="#6F4E37" stroke-width="3"/>
  <line x1="300" y1="220" x2="300" y2="245" stroke="#6F4E37" stroke-width="2.5" stroke-dasharray="6 4"/>
  <ellipse cx="300" cy="260" rx="10" ry="14" fill="url(#brew)"/>
  <ellipse cx="300" cy="320" rx="80" ry="22" fill="none" stroke="#6F4E37" stroke-width="3"/>
  <path d="M225 320 L 235 360 L 365 360 L 375 320" fill="none" stroke="#6F4E37" stroke-width="3" stroke-linejoin="round"/>
  <ellipse cx="300" cy="320" rx="68" ry="14" fill="url(#brew)" opacity="0.85"/>
  <text x="40" y="395" font-family="ui-monospace, 'JetBrains Mono', monospace" font-size="14" letter-spacing="6" fill="#6B5E52">— EXTRACTION</text>
  <text x="560" y="50" text-anchor="end" font-family="'Cormorant Garamond', serif" font-style="italic" font-size="22" fill="#6F4E37">추출</text>
</svg>
