<svg xmlns="http://www.w3.org/2000/svg" viewBox="0 0 600 400" role="img" aria-label="지속가능성과 농업경제">
  <defs>
    <linearGradient id="bg" x1="0" y1="0" x2="1" y2="1">
      <stop offset="0%" stop-color="#FAF7F2"/>
      <stop offset="100%" stop-color="#F2ECE3"/>
    </linearGradient>
    <radialGradient id="canopy" cx="0.5" cy="0.45" r="0.6">
      <stop offset="0%" stop-color="#A0845C"/>
      <stop offset="100%" stop-color="#6F4E37"/>
    </radialGradient>
  </defs>
  <rect width="600" height="400" fill="url(#bg)"/>
  <line x1="80" y1="320" x2="520" y2="320" stroke="#6B5E52" stroke-width="2" stroke-dasharray="6 4" opacity="0.5"/>
  <circle cx="300" cy="190" r="100" fill="url(#canopy)"/>
  <path d="M295 190 L 295 330 L 305 330 L 305 190 Z" fill="#3C2C1F"/>
  <g stroke="#B5703D" stroke-width="2" fill="none" opacity="0.7" stroke-linecap="round">
    <path d="M280 200 Q 270 180, 280 160"/>
    <path d="M320 200 Q 330 180, 320 160"/>
    <path d="M295 235 Q 285 220, 295 205"/>
    <path d="M305 235 Q 315 220, 305 205"/>
  </g>
  <g transform="translate(450 250)">
    <circle r="38" fill="none" stroke="#6F4E37" stroke-width="2.5"/>
    <path d="M-32 -8 Q -10 -28, 10 -10 Q 28 -2, 30 18" fill="none" stroke="#6F4E37" stroke-width="2.5"/>
    <path d="M-30 12 Q -8 22, 14 8" fill="none" stroke="#6F4E37" stroke-width="2"/>
  </g>
  <text x="40" y="370" font-family="ui-monospace, 'JetBrains Mono', monospace" font-size="14" letter-spacing="6" fill="#6B5E52">— SUSTAINABILITY</text>
  <text x="560" y="50" text-anchor="end" font-family="'Cormorant Garamond', serif" font-style="italic" font-size="22" fill="#6F4E37">지속가능성</text>
</svg>
