<svg xmlns="http://www.w3.org/2000/svg" viewBox="0 0 600 400" role="img" aria-label="커피 상식">
  <defs>
    <linearGradient id="bg" x1="0" y1="0" x2="1" y2="1">
      <stop offset="0%" stop-color="#FAF7F2"/><stop offset="100%" stop-color="#F2ECE3"/>
    </linearGradient>
    <linearGradient id="cup" x1="0" y1="0" x2="0" y2="1">
      <stop offset="0%" stop-color="#FAF7F2"/><stop offset="100%" stop-color="#E8DCC8"/>
    </linearGradient>
  </defs>
  <rect width="600" height="400" fill="url(#bg)"/>
  <!-- cute smiling cup -->
  <g transform="translate(300 205)">
    <path d="M-86 -50 L 86 -50 L 72 70 Q 72 96, 46 96 L -46 96 Q -72 96, -72 70 Z" fill="url(#cup)" stroke="#6F4E37" stroke-width="3.5" stroke-linejoin="round"/>
    <ellipse cx="0" cy="-50" rx="86" ry="16" fill="#5A3F2B"/>
    <ellipse cx="0" cy="-50" rx="73" ry="12" fill="#3C2C1F"/>
    <path d="M86 -24 Q 132 -24, 132 16 Q 132 56, 86 56" fill="none" stroke="#6F4E37" stroke-width="3.5"/>
    <!-- face -->
    <circle cx="-26" cy="14" r="7" fill="#6F4E37"/>
    <circle cx="26" cy="14" r="7" fill="#6F4E37"/>
    <path d="M-22 36 Q 0 54, 22 36" fill="none" stroke="#6F4E37" stroke-width="4" stroke-linecap="round"/>
    <circle cx="-44" cy="30" r="8" fill="#C9986A" opacity="0.55"/>
    <circle cx="44" cy="30" r="8" fill="#C9986A" opacity="0.55"/>
    <!-- steam -->
    <g stroke="#C9986A" stroke-width="3.5" fill="none" stroke-linecap="round" opacity="0.8">
      <path d="M-30 -74 q12 -18, 0 -36"/><path d="M0 -78 q12 -20, 0 -40"/><path d="M30 -74 q12 -18, 0 -36"/>
    </g>
  </g>
  <text x="40" y="370" font-family="ui-monospace, 'JetBrains Mono', monospace" font-size="14" letter-spacing="6" fill="#6B5E52">— COFFEE 101</text>
  <text x="560" y="50" text-anchor="end" font-family="'Cormorant Garamond', serif" font-style="italic" font-size="22" fill="#6F4E37">커피 상식</text>
</svg>
